<svg id="svg" version="1.1" xmlns="http://www.w3.org/2000/svg" xmlns:xlink="http://www.w3.org/1999/xlink" width="400" height="266.6666666666667" viewBox="0, 0, 400,266.6666666666667"><g id="svgg"><path id="path0" d="M0.000 133.333 L 0.000 266.667 95.385 266.667 L 190.769 266.667 190.769 218.462 L 190.769 170.256 162.051 170.256 L 133.333 170.256 133.333 189.744 L 133.333 209.231 95.385 209.231 L 57.436 209.231 57.436 133.333 L 57.436 57.436 95.385 57.436 L 133.333 57.436 133.333 76.923 L 133.333 96.410 162.051 96.410 L 190.769 96.410 190.769 48.205 L 190.769 0.000 95.385 0.000 L 0.000 0.000 0.000 133.333 M209.231 133.333 L 209.231 266.667 304.615 266.667 L 400.000 266.667 400.000 218.462 L 400.000 170.256 371.282 170.256 L 342.564 170.256 342.564 189.744 L 342.564 209.231 304.615 209.231 L 266.667 209.231 266.667 133.333 L 266.667 57.436 304.615 57.436 L 342.564 57.436 342.564 76.923 L 342.564 96.410 371.282 96.410 L 400.000 96.410 400.000 48.205 L 400.000 0.000 304.615 0.000 L 209.231 0.000 209.231 133.333 " stroke="none" fill="#000000" fill-rule="evenodd"></path></g></svg>